<svg xmlns="http://www.w3.org/2000/svg" width="81.508" height="83.274" viewBox="0 0 81.508 83.274">
  <g id="Grupo_53877" data-name="Grupo 53877" transform="translate(-1043 -1388)">
    <path id="Trazado_99477" data-name="Trazado 99477" d="M40.754,0A40.754,40.754,0,1,1,0,40.754,40.754,40.754,0,0,1,40.754,0Z" transform="translate(1043 1389.766)" fill="#95308e"/>
    <g id="Grupo_53864" data-name="Grupo 53864" transform="translate(-2235.15 2535.223)">
      <g id="Grupo_53865" data-name="Grupo 53865">
        <g id="Grupo_53863" data-name="Grupo 53863">
          <path id="Trazado_99466" data-name="Trazado 99466" d="M3342.347-1145.355v60.023a1.869,1.869,0,0,1-1.868,1.868H3297.33a1.869,1.869,0,0,1-1.868-1.868v-46.214l15.678-15.677h29.339a1.869,1.869,0,0,1,1.868,1.868Z" fill="#f0f7ff"/>
        </g>
        <g id="Grupo_53864-2" data-name="Grupo 53864">
          <path id="Trazado_99467" data-name="Trazado 99467" d="M3311.14-1147.223v13.809a1.869,1.869,0,0,1-1.868,1.868h-13.81v-1.866a1.892,1.892,0,0,1,.58-1.354l11.909-11.91a1.872,1.872,0,0,1,1.321-.547Z" fill="#dfe7f4"/>
        </g>
        <path id="Trazado_99468" data-name="Trazado 99468" d="M3342.347-1145.355v60.023a1.869,1.869,0,0,1-1.868,1.868H3318.9v-63.759h21.575A1.869,1.869,0,0,1,3342.347-1145.355Z" fill="#dfe7f4"/>
      </g>
      <g id="Grupo_53876" data-name="Grupo 53876">
        <g id="Grupo_53870" data-name="Grupo 53870">
          <g id="Grupo_53866" data-name="Grupo 53866">
            <path id="Trazado_99469" data-name="Trazado 99469" d="M3315.168-1119.559h-12.91a1.869,1.869,0,0,1-1.868-1.868,1.868,1.868,0,0,1,1.868-1.868h12.911a1.868,1.868,0,0,1,1.868,1.868A1.869,1.869,0,0,1,3315.168-1119.559Z" fill="#4793ff"/>
          </g>
          <g id="Grupo_53867" data-name="Grupo 53867">
            <path id="Trazado_99470" data-name="Trazado 99470" d="M3315.168-1112.088h-12.91a1.868,1.868,0,0,1-1.868-1.868,1.869,1.869,0,0,1,1.868-1.868h12.911a1.869,1.869,0,0,1,1.868,1.868A1.869,1.869,0,0,1,3315.168-1112.088Z" fill="#4793ff"/>
          </g>
          <g id="Grupo_53868" data-name="Grupo 53868">
            <path id="Trazado_99471" data-name="Trazado 99471" d="M3315.168-1104.616h-12.91a1.868,1.868,0,0,1-1.868-1.868,1.869,1.869,0,0,1,1.868-1.868h12.911a1.869,1.869,0,0,1,1.868,1.868A1.869,1.869,0,0,1,3315.168-1104.616Z" fill="#4793ff"/>
          </g>
          <g id="Grupo_53869" data-name="Grupo 53869">
            <path id="Trazado_99472" data-name="Trazado 99472" d="M3315.168-1097.144h-12.91a1.869,1.869,0,0,1-1.868-1.868,1.868,1.868,0,0,1,1.868-1.868h12.911a1.868,1.868,0,0,1,1.868,1.868A1.869,1.869,0,0,1,3315.168-1097.144Z" fill="#4793ff"/>
          </g>
        </g>
        <g id="Grupo_53873" data-name="Grupo 53873">
          <g id="Grupo_53872" data-name="Grupo 53872">
            <g id="Grupo_53871" data-name="Grupo 53871">
              <path id="Trazado_99473" data-name="Trazado 99473" d="M3351.065-1115.4a1.868,1.868,0,0,1-1.868-1.868v-7.983a8.781,8.781,0,0,0-8.771-8.77,8.781,8.781,0,0,0-8.771,8.77v7.983a1.867,1.867,0,0,1-1.867,1.868,1.868,1.868,0,0,1-1.868-1.868v-7.983a12.52,12.52,0,0,1,12.506-12.506,12.521,12.521,0,0,1,12.507,12.506v7.983A1.868,1.868,0,0,1,3351.065-1115.4Z" fill="#453d81"/>
            </g>
          </g>
        </g>
        <g id="Grupo_53874" data-name="Grupo 53874">
          <path id="Trazado_99474" data-name="Trazado 99474" d="M3356.345-1117.268v21.213a1.868,1.868,0,0,1-1.868,1.868h-28.1a1.867,1.867,0,0,1-1.868-1.868v-21.213a1.867,1.867,0,0,1,1.868-1.868h28.1a1.868,1.868,0,0,1,1.868,1.868Z" fill="#fabe2c"/>
        </g>
        <g id="Grupo_53875" data-name="Grupo 53875">
          <circle id="Elipse_5466" data-name="Elipse 5466" cx="1.868" cy="1.868" r="1.868" transform="translate(3338.558 -1108.529)" fill="#453d81"/>
          <circle id="Elipse_5467" data-name="Elipse 5467" cx="1.868" cy="1.868" r="1.868" transform="translate(3331.086 -1108.529)" fill="#453d81"/>
          <circle id="Elipse_5468" data-name="Elipse 5468" cx="1.868" cy="1.868" r="1.868" transform="translate(3346.03 -1108.529)" fill="#453d81"/>
        </g>
      </g>
    </g>
  </g>
</svg>
