<svg xmlns="http://www.w3.org/2000/svg" width="81.508" height="83.275" viewBox="0 0 81.508 83.275">
  <g id="Grupo_53879" data-name="Grupo 53879" transform="translate(-275 -1388)">
    <g id="Grupo_53840" data-name="Grupo 53840" transform="translate(-2810.658 2535.223)">
      <path id="Trazado_99475" data-name="Trazado 99475" d="M40.754,0A40.754,40.754,0,1,1,0,40.754,40.754,40.754,0,0,1,40.754,0Z" transform="translate(3085.658 -1145.457)" fill="#95308e"/>
      <g id="Grupo_53862" data-name="Grupo 53862">
        <g id="Grupo_53852" data-name="Grupo 53852">
          <g id="Grupo_53850" data-name="Grupo 53850">
            <path id="Trazado_99455" data-name="Trazado 99455" d="M3149.585-1145.355v60.023a1.869,1.869,0,0,1-1.868,1.868h-43.149a1.869,1.869,0,0,1-1.868-1.868v-46.214l15.678-15.677h29.339a1.869,1.869,0,0,1,1.868,1.868Z" fill="#f0f7ff"/>
          </g>
          <g id="Grupo_53851" data-name="Grupo 53851">
            <path id="Trazado_99456" data-name="Trazado 99456" d="M3118.378-1147.223v13.809a1.869,1.869,0,0,1-1.868,1.868H3102.7v-1.866a1.9,1.9,0,0,1,.58-1.354l11.909-11.91a1.874,1.874,0,0,1,1.321-.547Z" fill="#dfe7f4"/>
          </g>
          <path id="Trazado_99457" data-name="Trazado 99457" d="M3149.585-1145.355v60.023a1.869,1.869,0,0,1-1.868,1.868h-21.574v-63.759h21.574A1.869,1.869,0,0,1,3149.585-1145.355Z" fill="#dfe7f4"/>
        </g>
        <g id="Grupo_53861" data-name="Grupo 53861">
          <g id="Grupo_53857" data-name="Grupo 53857">
            <g id="Grupo_53853" data-name="Grupo 53853">
              <path id="Trazado_99458" data-name="Trazado 99458" d="M3122.407-1119.559H3109.5a1.868,1.868,0,0,1-1.868-1.868,1.868,1.868,0,0,1,1.868-1.868h12.91a1.868,1.868,0,0,1,1.868,1.868A1.868,1.868,0,0,1,3122.407-1119.559Z" fill="#4793ff"/>
            </g>
            <g id="Grupo_53854" data-name="Grupo 53854">
              <path id="Trazado_99459" data-name="Trazado 99459" d="M3122.407-1112.088H3109.5a1.868,1.868,0,0,1-1.868-1.868,1.868,1.868,0,0,1,1.868-1.868h12.91a1.868,1.868,0,0,1,1.868,1.868A1.867,1.867,0,0,1,3122.407-1112.088Z" fill="#4793ff"/>
            </g>
            <g id="Grupo_53855" data-name="Grupo 53855">
              <path id="Trazado_99460" data-name="Trazado 99460" d="M3122.407-1104.616H3109.5a1.868,1.868,0,0,1-1.868-1.868,1.868,1.868,0,0,1,1.868-1.868h12.91a1.868,1.868,0,0,1,1.868,1.868A1.868,1.868,0,0,1,3122.407-1104.616Z" fill="#4793ff"/>
            </g>
            <g id="Grupo_53856" data-name="Grupo 53856">
              <path id="Trazado_99461" data-name="Trazado 99461" d="M3122.407-1097.144H3109.5a1.868,1.868,0,0,1-1.868-1.868,1.868,1.868,0,0,1,1.868-1.868h12.91a1.868,1.868,0,0,1,1.868,1.868A1.868,1.868,0,0,1,3122.407-1097.144Z" fill="#4793ff"/>
            </g>
          </g>
          <g id="Grupo_53859" data-name="Grupo 53859">
            <g id="Grupo_53858" data-name="Grupo 53858">
              <path id="Trazado_99462" data-name="Trazado 99462" d="M3163.716-1115.2a27.454,27.454,0,0,1-13.205,17.863,1.867,1.867,0,0,1-.925.245h0a1.886,1.886,0,0,1-.927-.245,27.452,27.452,0,0,1-13.2-17.863,33.227,33.227,0,0,1-.871-10.809,1.868,1.868,0,0,1,1.665-1.636,24.148,24.148,0,0,0,6.616-1.715,18.893,18.893,0,0,0,5.313-3.981,1.878,1.878,0,0,1,1.4-.635h0a1.869,1.869,0,0,1,1.406.639,18.967,18.967,0,0,0,5.31,3.977,24.175,24.175,0,0,0,6.619,1.715,1.869,1.869,0,0,1,1.663,1.636,33.228,33.228,0,0,1-.869,10.809Z" fill="#bde239"/>
            </g>
          </g>
          <path id="Trazado_99463" data-name="Trazado 99463" d="M3163.716-1115.2a27.454,27.454,0,0,1-13.205,17.863,1.867,1.867,0,0,1-.925.245v-36.884h0a1.869,1.869,0,0,1,1.406.639,18.967,18.967,0,0,0,5.31,3.977,24.175,24.175,0,0,0,6.619,1.715,1.869,1.869,0,0,1,1.663,1.636,33.228,33.228,0,0,1-.869,10.809Z" fill="#8bbc43"/>
          <g id="Grupo_53860" data-name="Grupo 53860">
            <path id="Trazado_99464" data-name="Trazado 99464" d="M3158.12-1118.376l-7.016,8.128a1.862,1.862,0,0,1-1.518.644,1.848,1.848,0,0,1-1.22-.543l-4.6-4.59a1.868,1.868,0,0,1,0-2.641,1.871,1.871,0,0,1,2.645,0l3.171,3.166,5.7-6.6a1.873,1.873,0,0,1,2.638-.2,1.866,1.866,0,0,1,.194,2.634Z" fill="#f0f7ff"/>
          </g>
          <path id="Trazado_99465" data-name="Trazado 99465" d="M3158.12-1118.376l-7.016,8.128a1.862,1.862,0,0,1-1.518.644v-4.608l5.7-6.6a1.873,1.873,0,0,1,2.638-.2A1.866,1.866,0,0,1,3158.12-1118.376Z" fill="#dfe7f4"/>
        </g>
      </g>
    </g>
  </g>
</svg>
