<svg id="Grupo_54203" data-name="Grupo 54203" xmlns="http://www.w3.org/2000/svg" width="148.719" height="148.719" viewBox="0 0 148.719 148.719">
  <g id="Grupo_53269" data-name="Grupo 53269" transform="translate(0 0)">
    <path id="Trazado_99111" data-name="Trazado 99111" d="M680.714,614.923l8.5-8.5,12.062,12.063-8.5,8.5Z" transform="translate(-570.905 -507.381)" fill="#ecdaec"/>
    <path id="Trazado_99112" data-name="Trazado 99112" d="M704.7,618.481l-12.065-12.065-4.455,4.456,4.008,9.24,8.056,2.824H704.7Z" transform="translate(-574.3 -507.379)" fill="#ecdaec"/>
    <path id="Trazado_99113" data-name="Trazado 99113" d="M684.8,614.587l-4.048,4.047L692.82,630.7h4.048v-4.048Z" transform="translate(-570.924 -511.094)" fill="#e2cbe2"/>
    <path id="Trazado_99114" data-name="Trazado 99114" d="M483.846,570.739h99.061c2.483,0,4.5-1.714,4.5-7.112V458.066L559.538,424.8H483.846a4.5,4.5,0,0,0-4.5,4.5V563.628C479.348,569.025,481.362,570.739,483.846,570.739Z" transform="translate(-479.348 -424.803)" fill="#f9f7f8"/>
    <path id="Trazado_99115" data-name="Trazado 99115" d="M626.4,467.655a4.5,4.5,0,0,0,4.5,4.5" transform="translate(-546.21 -444.287)" fill="#e2cbe2"/>
    <g id="Grupo_53268" data-name="Grupo 53268" transform="translate(39.637 41.363)">
      <path id="Trazado_99116" data-name="Trazado 99116" d="M604.491,505.152H554.283a2.249,2.249,0,0,1,0-4.5h50.208a2.249,2.249,0,0,1,0,4.5Z" transform="translate(-552.034 -500.654)" fill="#365e7d"/>
      <path id="Trazado_99117" data-name="Trazado 99117" d="M583.133,525.242h-28.85a2.249,2.249,0,0,1,0-4.5h28.85a2.249,2.249,0,0,1,0,4.5Z" transform="translate(-552.034 -509.789)" fill="#365e7d"/>
      <path id="Trazado_99118" data-name="Trazado 99118" d="M572.4,562.974H554.283a2.249,2.249,0,1,1,0-4.5H572.4a2.249,2.249,0,1,1,0,4.5Z" transform="translate(-552.034 -526.945)" fill="#365e7d"/>
      <path id="Trazado_99119" data-name="Trazado 99119" d="M572.558,583.063H554.283a2.249,2.249,0,1,1,0-4.5h18.275a2.249,2.249,0,1,1,0,4.5Z" transform="translate(-552.034 -536.079)" fill="#365e7d"/>
      <path id="Trazado_99120" data-name="Trazado 99120" d="M582.5,621.97H554.283a2.249,2.249,0,1,1,0-4.5H582.5a2.249,2.249,0,0,1,0,4.5Z" transform="translate(-552.034 -553.769)" fill="#365e7d"/>
      <path id="Trazado_99121" data-name="Trazado 99121" d="M604.129,642.059H554.283a2.249,2.249,0,1,1,0-4.5h49.846a2.249,2.249,0,0,1,0,4.5Z" transform="translate(-552.034 -562.903)" fill="#365e7d"/>
    </g>
    <path id="Trazado_99122" data-name="Trazado 99122" d="M590.132,566.233a37.325,37.325,0,0,0,52.785,0A38.251,38.251,0,0,0,653.752,539.4a37.325,37.325,0,0,0-74.455,0,38.961,38.961,0,0,0,10.835,26.828Z" transform="translate(-524.793 -461.166)" fill="#e2cbe2"/>
    <path id="Trazado_99123" data-name="Trazado 99123" d="M598.257,547.993a27.742,27.742,0,0,0,7.779,19.475,27.024,27.024,0,0,0,38.219,0,28.8,28.8,0,0,0,7.778-19.475,27.023,27.023,0,0,0-53.776,0Z" transform="translate(-533.414 -469.755)" fill="#f9f7f8"/>
    <path id="Trazado_99124" data-name="Trazado 99124" d="M624.652,562.225a29.943,29.943,0,0,1,.581,3.3l6.2,6.031a4.725,4.725,0,0,0,6.677-.089l11.762-12.061a31.16,31.16,0,0,1,.492-3.218,4.717,4.717,0,0,0-7.258-.6l-8.468,8.683-2.818-2.741a4.694,4.694,0,0,0-7.169.693Z" transform="translate(-545.415 -483.621)" fill="#6dc1cb"/>
    <path id="Trazado_99125" data-name="Trazado 99125" d="M730.08,649.639a8.386,8.386,0,0,0-1.673-9.469L715.28,627.042a1.5,1.5,0,0,0-2.12,0l-6.749,6.749-.979,3.907,12.289,12.731c2.566,2.566,8.644,3.1,12.36-.791Z" transform="translate(-582.144 -516.557)" fill="#ff8086"/>
    <path id="Trazado_99126" data-name="Trazado 99126" d="M718.552,653.968l-14.183-14.183-2.988,2.988a1.5,1.5,0,0,0,0,2.12l13.127,13.128a8.389,8.389,0,0,0,13.531-2.388,8.387,8.387,0,0,1-9.487-1.664Z" transform="translate(-580.103 -522.551)" fill="#e5646e"/>
    <path id="Trazado_99127" data-name="Trazado 99127" d="M510.328,513.32h9.838c1.536,0,2.781-2.189,2.781-5.4v-4.441a2.781,2.781,0,0,0-2.781-2.781h-9.838a2.781,2.781,0,0,0-2.781,2.781v4.441C507.548,511.268,508.792,513.32,510.328,513.32Z" transform="translate(-492.17 -459.313)" fill="#6dc1cb"/>
    <path id="Trazado_99128" data-name="Trazado 99128" d="M626.4,467.655v5.4a4.5,4.5,0,0,0,4.5,4.5h23.369v-5.4Z" transform="translate(-546.21 -444.287)" fill="#ddeafb"/>
    <path id="Trazado_99129" data-name="Trazado 99129" d="M630.9,452.669h23.369L626.4,424.8v23.368A4.5,4.5,0,0,0,630.9,452.669Z" transform="translate(-546.21 -424.803)" fill="#ecf4ff"/>
    <path id="Trazado_99130" data-name="Trazado 99130" d="M649.167,558.48l-11.762,12.061a4.725,4.725,0,0,1-6.677.089l-6.2-6.031a4.773,4.773,0,0,1-.581-.686,4.723,4.723,0,0,0,.581,6.084l6.2,6.03a4.726,4.726,0,0,0,6.677-.088l11.762-12.061a4.725,4.725,0,0,0,.492-6,4.7,4.7,0,0,1-.492.6Z" transform="translate(-544.709 -485.309)" fill="#3da3af"/>
    <path id="Trazado_99131" data-name="Trazado 99131" d="M520.167,516.727h-9.838a2.781,2.781,0,0,1-2.781-2.781v5.4a2.781,2.781,0,0,0,2.781,2.781h9.838a2.781,2.781,0,0,0,2.781-2.781v-5.4A2.781,2.781,0,0,1,520.167,516.727Z" transform="translate(-492.17 -465.335)" fill="#3da3af"/>
    <path id="Trazado_99132" data-name="Trazado 99132" d="M510.328,571.142h9.838c1.536,0,2.781-2.189,2.781-5.4v-4.441a2.781,2.781,0,0,0-2.781-2.781h-9.838a2.781,2.781,0,0,0-2.781,2.781v4.441C507.548,569.09,508.792,571.142,510.328,571.142Z" transform="translate(-492.17 -485.603)" fill="#6dc1cb"/>
    <path id="Trazado_99133" data-name="Trazado 99133" d="M520.167,574.549h-9.838a2.781,2.781,0,0,1-2.781-2.781v5.4a2.781,2.781,0,0,0,2.781,2.782h9.838a2.781,2.781,0,0,0,2.781-2.782v-5.4A2.781,2.781,0,0,1,520.167,574.549Z" transform="translate(-492.17 -491.625)" fill="#3da3af"/>
    <path id="Trazado_99134" data-name="Trazado 99134" d="M510.328,630.138h9.838c1.536,0,2.781-2.189,2.781-5.4V620.3a2.781,2.781,0,0,0-2.781-2.781h-9.838a2.782,2.782,0,0,0-2.781,2.781v4.442C507.548,628.086,508.792,630.138,510.328,630.138Z" transform="translate(-492.17 -512.428)" fill="#6dc1cb"/>
    <path id="Trazado_99135" data-name="Trazado 99135" d="M520.167,633.546h-9.838a2.781,2.781,0,0,1-2.781-2.781v5.4a2.781,2.781,0,0,0,2.781,2.781h9.838a2.781,2.781,0,0,0,2.781-2.781v-5.4A2.782,2.782,0,0,1,520.167,633.546Z" transform="translate(-492.17 -518.45)" fill="#3da3af"/>
    <path id="Trazado_99136" data-name="Trazado 99136" d="M582.907,683.875H483.846a4.5,4.5,0,0,1-4.5-4.5v5.4a4.5,4.5,0,0,0,4.5,4.5h99.061a4.5,4.5,0,0,0,4.5-4.5v-5.4A4.5,4.5,0,0,1,582.907,683.875Z" transform="translate(-479.348 -540.553)" fill="#ddeafb"/>
    <path id="Trazado_99137" data-name="Trazado 99137" d="M642.836,591.97a37.325,37.325,0,0,1-63.62-23.694,37.325,37.325,0,1,0,74.455,0A37.181,37.181,0,0,1,642.836,591.97Z" transform="translate(-524.712 -490.037)" fill="#dab9d8"/>
    <path id="Trazado_99138" data-name="Trazado 99138" d="M644.143,584.687a27.023,27.023,0,0,1-46-16.411,27.023,27.023,0,1,0,53.776,0,26.91,26.91,0,0,1-7.778,16.411Z" transform="translate(-533.302 -490.037)" fill="#ecf4ff"/>
  </g>
</svg>
