<svg xmlns="http://www.w3.org/2000/svg" width="84.258" height="83.274" viewBox="0 0 84.258 83.274">
  <g id="Grupo_53878" data-name="Grupo 53878" transform="translate(-636.436 -1388)">
    <path id="Trazado_99476" data-name="Trazado 99476" d="M40.754,0A40.754,40.754,0,1,1,0,40.754,40.754,40.754,0,0,1,40.754,0Z" transform="translate(636.436 1389.766)" fill="#95308e"/>
    <g id="Grupo_53863" data-name="Grupo 53863" transform="translate(-2537.658 2535.223)">
      <g id="Grupo_53842" data-name="Grupo 53842">
        <g id="Grupo_53840" data-name="Grupo 53840">
          <path id="Trazado_99448" data-name="Trazado 99448" d="M3238.291-1145.355v60.023a1.869,1.869,0,0,1-1.868,1.868h-43.149a1.869,1.869,0,0,1-1.868-1.868v-46.214l15.678-15.677h29.339a1.869,1.869,0,0,1,1.868,1.868Z" fill="#f0f7ff"/>
        </g>
        <g id="Grupo_53841" data-name="Grupo 53841">
          <path id="Trazado_99449" data-name="Trazado 99449" d="M3207.084-1147.223v13.809a1.869,1.869,0,0,1-1.868,1.868h-13.81v-1.866a1.891,1.891,0,0,1,.58-1.354l11.909-11.91a1.874,1.874,0,0,1,1.321-.547Z" fill="#dfe7f4"/>
        </g>
        <path id="Trazado_99450" data-name="Trazado 99450" d="M3238.291-1145.355v60.023a1.869,1.869,0,0,1-1.868,1.868h-21.575v-63.759h21.575A1.869,1.869,0,0,1,3238.291-1145.355Z" fill="#dfe7f4"/>
      </g>
      <g id="Grupo_53848" data-name="Grupo 53848">
        <g id="Grupo_53847" data-name="Grupo 53847">
          <g id="Grupo_53843" data-name="Grupo 53843">
            <path id="Trazado_99451" data-name="Trazado 99451" d="M3211.113-1119.559H3198.2a1.868,1.868,0,0,1-1.868-1.868,1.868,1.868,0,0,1,1.868-1.868h12.91a1.868,1.868,0,0,1,1.868,1.868A1.869,1.869,0,0,1,3211.113-1119.559Z" fill="#4793ff"/>
          </g>
          <g id="Grupo_53844" data-name="Grupo 53844">
            <path id="Trazado_99452" data-name="Trazado 99452" d="M3211.113-1112.088H3198.2a1.867,1.867,0,0,1-1.868-1.868,1.868,1.868,0,0,1,1.868-1.868h12.91a1.869,1.869,0,0,1,1.868,1.868A1.868,1.868,0,0,1,3211.113-1112.088Z" fill="#4793ff"/>
          </g>
          <g id="Grupo_53845" data-name="Grupo 53845">
            <path id="Trazado_99453" data-name="Trazado 99453" d="M3211.113-1104.616H3198.2a1.868,1.868,0,0,1-1.868-1.868,1.868,1.868,0,0,1,1.868-1.868h12.91a1.869,1.869,0,0,1,1.868,1.868A1.868,1.868,0,0,1,3211.113-1104.616Z" fill="#4793ff"/>
          </g>
          <g id="Grupo_53846" data-name="Grupo 53846">
            <path id="Trazado_99454" data-name="Trazado 99454" d="M3211.113-1097.144H3198.2a1.868,1.868,0,0,1-1.868-1.868,1.868,1.868,0,0,1,1.868-1.868h12.91a1.868,1.868,0,0,1,1.868,1.868A1.869,1.869,0,0,1,3211.113-1097.144Z" fill="#4793ff"/>
          </g>
        </g>
      </g>
    </g>
    <circle id="Elipse_5466" data-name="Elipse 5466" cx="17.937" cy="17.937" r="17.937" transform="translate(683.002 1402.895)" fill="#a8ebfa"/>
    <path id="Trazado_99466" data-name="Trazado 99466" d="M3256.535-1114.391a17.938,17.938,0,0,1-17.938,17.938v-35.875A17.936,17.936,0,0,1,3256.535-1114.391Z" transform="translate(-2537.658 2535.223)" fill="#7dd5f4"/>
    <path id="Trazado_99467" data-name="Trazado 99467" d="M3238.649-1134.11h-.052a19.741,19.741,0,0,0-19.683,19.719,19.742,19.742,0,0,0,19.683,19.72h.052a19.743,19.743,0,0,0,19.7-19.72A19.743,19.743,0,0,0,3238.649-1134.11Zm14.149,11.958h-6.166a30.21,30.21,0,0,0-1.481-5.559,18.885,18.885,0,0,0-.785-1.783,16.251,16.251,0,0,1,8.432,7.342Zm-17.356-4.285c1.071-2.8,2.349-4.072,3.155-4.108h.042c.807.007,2.1,1.278,3.184,4.109a25.8,25.8,0,0,1,1.189,4.285h-8.758A26.135,26.135,0,0,1,3235.442-1126.437Zm-12.964,12.046a16.112,16.112,0,0,1,.554-4.2h7.138a48.142,48.142,0,0,0,0,8.4h-7.137A16.088,16.088,0,0,1,3222.478-1114.391Zm1.991,7.761h6.164a30.241,30.241,0,0,0,1.482,5.559,18.778,18.778,0,0,0,.785,1.783A16.236,16.236,0,0,1,3224.469-1106.63Zm7.646-21.081a30.365,30.365,0,0,0-1.482,5.559h-6.164a16.249,16.249,0,0,1,8.431-7.342,19.011,19.011,0,0,0-.785,1.783Zm9.708,25.367c-1.084,2.831-2.377,4.1-3.184,4.109h-.042c-.806-.036-2.084-1.309-3.155-4.108a26.12,26.12,0,0,1-1.188-4.286h8.758a25.783,25.783,0,0,1-1.189,4.286Zm1.7-7.85h-9.776a45.164,45.164,0,0,1,0-8.4h9.776A45.185,45.185,0,0,1,3243.521-1110.194Zm.845,10.906a18.654,18.654,0,0,0,.785-1.783,30.164,30.164,0,0,0,1.481-5.559h6.166a16.243,16.243,0,0,1-8.432,7.342Zm2.73-10.906a48,48,0,0,0,0-8.4h7.138a16.113,16.113,0,0,1,.555,4.2,16.088,16.088,0,0,1-.555,4.2Z" transform="translate(-2537.658 2535.223)" fill="#4793ff"/>
    <path id="Trazado_99468" data-name="Trazado 99468" d="M3238.649-1134.11h-.052v3.565h.042c.807.007,2.1,1.278,3.184,4.109a25.8,25.8,0,0,1,1.189,4.285H3238.6v3.563h4.924a45.185,45.185,0,0,1,0,8.4H3238.6v3.564h4.415a25.783,25.783,0,0,1-1.189,4.286c-1.084,2.831-2.377,4.1-3.184,4.109h-.042v3.565h.052a19.743,19.743,0,0,0,19.7-19.72A19.743,19.743,0,0,0,3238.649-1134.11Zm14.149,11.958h-6.166a30.21,30.21,0,0,0-1.481-5.559,18.885,18.885,0,0,0-.785-1.783,16.251,16.251,0,0,1,8.432,7.342Zm-8.432,22.864a18.654,18.654,0,0,0,.785-1.783,30.164,30.164,0,0,0,1.481-5.559h6.166a16.243,16.243,0,0,1-8.432,7.342Zm2.73-10.906a48,48,0,0,0,0-8.4h7.138a16.113,16.113,0,0,1,.555,4.2,16.088,16.088,0,0,1-.555,4.2Z" transform="translate(-2537.658 2535.223)" fill="#525cdd"/>
  </g>
</svg>
